<svg xmlns="http://www.w3.org/2000/svg" viewBox="0 0 1193.88 419.19"><path fill="#0169ff" d="M621 388c-37.24 25.71-77.78 35.82-122 28.84-38.83-6.11-71.38-24.35-97.28-53.88a162.36 162.36 0 0 1-10-201.74c26.32-36.67 62.06-59.2 106.78-66.44 44.42-7.2 85.18 2.72 122.08 28.33 1.07-1.22.66-2.38.67-3.43v-15.67c0-2.31.14-2.43 2.48-2.43h62c2.49 0 2.63.19 2.74 2.61v307.35c0 5.29 0 4.44-4.52 4.45-11 0-22-.2-33 .06a29.42 29.42 0 0 1-28.24-19.42A31.5 31.5 0 0 1 621 388m-96-36.69c50.26.67 95.78-40.17 95.86-95.47.08-53.59-43-95.69-96-95.85-51.69-.15-95.09 41.81-95.87 94.3-.81 54.33 44.18 97.86 96.01 97.05Zm501.3-260.53c91.52-2.15 168.58 72 167.57 166-1 90.73-75.66 164.49-168.67 162.35-88-2-160.57-74-160.39-164.63C865 163 939.37 91.68 1026.3 90.78m3.24 260.56a96.29 96.29 0 0 0 96.35-95.44c.52-54.84-43.32-97-96-97.45a96.45 96.45 0 1 0-.36 192.89ZM344.32 3.46c.66-1.1-.05-2.34.37-3.46H9.36a10.6 10.6 0 0 0-.53 3.91v67.05a1.12 1.12 0 0 0 1 1.16c1.44.06 2.88.18 4.32.18h225.66c.09.56.18 1.12.26 1.68a.61.61 0 0 0-.57.68v.05a.5.5 0 0 0-.48.69L203.76 119l-57.85 71.48-52.37 64.77q-19.8 24.48-39.62 48.95c-12.79 15.8-25.51 31.65-38.41 47.35C5.79 363.38.38 376.76.12 392.12 0 398.67.05 405.23 0 411.78c0 4.68-.11 4.22 4.08 4.22h311.65a26.16 26.16 0 0 0 12.49-3c9.38-5 15.08-12.64 15.91-23.39.39-5.19.29-10.43.28-15.65 0-7-.17-14-.22-21 0-4.57.27-4.07-4.17-4.07H103.7c-.62 0-1.38.18-1.67-.78.4-1.39 1.52-2.36 2.4-3.47q23.27-29.14 46.57-58.3 32.3-40.5 64.59-81 34.69-43.5 69.42-87c11.79-14.75 23.41-29.64 35.44-44.2 3.88-4.7 8.31-9 11.47-14.25.81-.27.91-1 1-1.66l1-1.7c.84-.32.86-1.05.88-1.78a.6.6 0 0 0 .44-.82l.7-1.35c.81-.36.83-1.09.85-1.82a5.88 5.88 0 0 0 2-4.67 3.2 3.2 0 0 0 1.1-2.8v-.07c.78-.24.72-.7.32-1.25l.57-1.86c.82-2 2.25-3.8 1.52-6.17.07-.4.15-.81.22-1.22a14.33 14.33 0 0 0 1.05-7.32l.15-1.79a1.27 1.27 0 0 0 .73-1c.08-4.22.55-8.44-.19-12.64ZM818 0h-72.64a11.9 11.9 0 0 0-.52 4.93v387.89a12 12 0 0 0 1.79 6.58c.23.63.46 1.27.68 1.91-.07.08-.19.15-.2.22 0 .27.14.37.4.29l.71 1.41a.57.57 0 0 0 .48.77 25 25 0 0 0 8.64 8.7.57.57 0 0 0 .78.47l1.39.72c2.78 2.07 6 2.6 9.36 2.62 15 .05 30 0 45 0 4 0 4 0 4.06-4.09V5c-.03-1.68.07-3.34.07-5"/></svg>